<svg width="34" height="29" viewBox="0 0 34 29" fill="none" xmlns="http://www.w3.org/2000/svg">
<path d="M17.0001 29C16.6794 29.0066 16.3648 28.8764 16.098 28.6267L2.62967 15.2562C-0.874971 11.7696 -0.874971 6.09993 2.62967 2.60069C4.51204 0.842428 6.73301 -0.0651481 8.99396 -3.95649e-06C11.2564 -0.0595408 13.4774 0.854709 15.3583 2.61968L17.0001 4.24591L18.6419 2.61968C22.151 -0.866904 27.8613 -0.866904 31.3705 2.61968C34.8796 6.10626 34.8796 11.7696 31.3705 15.2751L17.9067 28.6267C17.6382 28.8766 17.3222 29.0067 17.0001 29ZM8.99396 2.53109C7.37426 2.49607 5.78584 3.15862 4.44289 4.42941C1.93055 6.92254 1.93055 10.9786 4.44289 13.4717L17.0001 25.9437L29.5618 13.4591C32.0696 10.966 32.0696 6.90988 29.5618 4.41675C27.0539 1.92363 22.9674 1.89832 20.4506 4.42941L17.9067 6.9605C17.6378 7.20381 17.3246 7.33322 17.0046 7.33322C16.6846 7.33322 16.3714 7.20381 16.1025 6.9605L13.5315 4.42941C12.1922 3.16271 10.609 2.50036 8.99396 2.53109Z" fill="#E13B3F"/>
</svg>
